<!-- Generated by IcoMoon.io -->
<svg version="1.1" xmlns="http://www.w3.org/2000/svg" width="512" height="512" viewBox="0 0 512 512">
<title></title>
<g id="icomoon-ignore">
</g>
<path fill="#000" d="M176 191v130c0 8.25 6.75 15 15 15h130c8.25 0 15-6.75 15-15v-130c0-8.25-6.75-15-15-15h-130c-8.25 0-15 6.75-15 15zM288 206.406l0.219 14.625c0 0 0.625 3.156-2.219 7.281-3.75 5.469-13.531 10.625-12.25 14.656 1.281 4.063 10.063 3.938 10.063 3.938s1.875-0.031 2.875 0.906c1.094 1 1.313 3 1.313 3v6.531c0 0 0.875 14.438-12.375 27.156-14.438 13.875-43.094 26.125-43.094 26.125s-1.875 0.719-2.781-0.063c-1.031-0.875-1.094-3.219-1.094-3.219l-0.094-15.656c0 0 0.25-1.469 1.031-2.531 0.625-0.875 1.844-1.344 1.844-1.344s6.406-2.531 12.188-5.875c11.281-6.531 13.75-9.594 12.563-11.813-1.75-3.219-15.969-2.25-15.969-2.25s-5.156-0.063-7.438 1.625c-1.781 1.313-2.313 3.781-2.438 4.844-0.125 0.875-2.156-0.563-3.094-2.438-1.375-2.813-1.469-7.781-1.406-13.656 0.031-4.563 0.344-5.906 0.75-7.688 1.313-5.406 6.344-3.563 18.406-3.563 3.875 0 9.313 0.688 11.094-2.094 0.781-1.188 0.125-4.125-12.344-11.469-5.906-3.469-12.844-6.094-12.844-6.094s-1.25-0.563-1.781-1.438c-0.531-0.906-0.375-2.125-0.375-2.125l-0.094-16.469c0 0-0.594-4.938 1.656-5.75 2.344-0.844 7.813 1.844 16.781 8.563 14.719 11.031 13.344 12.281 21.844 3.094 8.125-8.75 12.094-10.563 12.594-10.875 6-3.563 6.469 4.063 6.469 4.063z"></path>
</svg>
