<!-- Generated by IcoMoon.io -->
<svg version="1.1" xmlns="http://www.w3.org/2000/svg" width="512" height="512" viewBox="0 0 512 512">
<title></title>
<g id="icomoon-ignore">
</g>
<path fill="#000" d="M16 61v390c0 24.75 20.25 45 45 45h390c24.75 0 45-20.25 45-45v-390c0-24.75-20.25-45-45-45h-390c-24.75 0-45 20.25-45 45zM352 107.222l0.654 43.875c0 0 1.875 9.466-6.654 21.841-11.25 16.404-40.591 31.875-36.75 43.966 3.841 12.188 30.188 11.813 30.188 11.813s5.625-0.091 8.625 2.716c3.279 3 3.938 9 3.938 9v19.591c0 0 2.625 43.313-37.125 81.466-43.313 41.625-129.279 78.375-129.279 78.375s-5.625 2.154-8.341-0.188c-3.091-2.625-3.279-9.654-3.279-9.654l-0.279-46.966c0 0 0.75-4.404 3.091-7.591 1.875-2.625 5.529-4.029 5.529-4.029s19.216-7.591 36.563-17.625c33.841-19.591 41.25-28.779 37.688-35.438-5.25-9.654-47.904-6.75-47.904-6.75s-15.466-0.188-22.313 4.875c-5.341 3.938-6.938 11.341-7.313 14.529-0.375 2.625-6.466-1.688-9.279-7.313-4.125-8.438-4.404-23.341-4.216-40.966 0.091-13.688 1.029-17.716 2.25-23.063 3.938-16.216 19.029-10.688 55.216-10.688 11.625 0 27.938 2.063 33.279-6.279 2.341-3.563 0.375-12.375-37.029-34.404-17.716-10.404-38.529-18.279-38.529-18.279s-3.75-1.688-5.341-4.313c-1.591-2.716-1.125-6.375-1.125-6.375l-0.279-49.404c0 0-1.779-14.813 4.966-17.25 7.029-2.528 23.438 5.528 50.341 25.688 44.154 33.091 40.029 36.841 65.529 9.278 24.375-26.25 36.279-31.688 37.779-32.625 18-10.688 19.404 12.188 19.404 12.188z"></path>
</svg>
